<?xml version="1.0" encoding="utf-8"?>
<!-- Generator: Adobe Illustrator 18.1.1, SVG Export Plug-In . SVG Version: 6.00 Build 0)  -->
<svg version="1.1" id="Layer_1" xmlns="http://www.w3.org/2000/svg" xmlns:xlink="http://www.w3.org/1999/xlink" x="0px" y="0px"
	 width="95.4px" height="17.3px" viewBox="0 0 95.4 17.3" enable-background="new 0 0 95.4 17.3" xml:space="preserve">
<g>
	<path d="M2.2,0.9c0.2,0,0.4,0.1,0.7,0.2c0.2,0.1,0.4,0.3,0.5,0.4L9,10.2l-1.1,0l5.7-8.5c0.3-0.4,0.7-0.6,1.1-0.6
		c0.4,0,0.7,0.1,1,0.4c0.3,0.3,0.4,0.6,0.4,1v13.3c0,0.4-0.1,0.7-0.4,1c-0.3,0.3-0.6,0.4-1,0.4s-0.8-0.1-1-0.4
		c-0.3-0.3-0.4-0.6-0.4-1V4.8L14.1,5l-4.7,7.1c-0.1,0.2-0.3,0.3-0.5,0.4s-0.4,0.2-0.6,0.2c-0.2,0-0.4,0-0.6-0.2s-0.4-0.3-0.5-0.4
		L2.8,5.2L3.4,4v11.6c0,0.4-0.1,0.7-0.4,1C2.7,16.9,2.4,17,2,17c-0.4,0-0.7-0.1-0.9-0.4c-0.2-0.3-0.4-0.6-0.4-1V2.3
		c0-0.4,0.1-0.7,0.4-1C1.4,1.1,1.8,0.9,2.2,0.9z"/>
	<path d="M25.4,4.6l-5,11.7c-0.1,0.3-0.3,0.5-0.5,0.7c-0.2,0.2-0.5,0.2-0.7,0.2c-0.4,0-0.7-0.1-0.9-0.3C18.1,16.6,18,16.3,18,16
		c0-0.1,0-0.3,0.1-0.4l5.7-13.7c0.1-0.3,0.3-0.5,0.6-0.7c0.3-0.2,0.5-0.2,0.8-0.2c0.3,0,0.5,0.1,0.8,0.2c0.2,0.2,0.4,0.4,0.5,0.7
		l5.7,13.5c0.1,0.2,0.1,0.4,0.1,0.6c0,0.4-0.1,0.7-0.4,1c-0.3,0.2-0.6,0.4-0.9,0.4c-0.3,0-0.5-0.1-0.7-0.3c-0.2-0.2-0.4-0.4-0.5-0.7
		L24.8,4.7L25.4,4.6z M21.2,13.4l1.3-2.6h6.2l0.4,2.6H21.2z"/>
	<path d="M35.8,17c-0.4,0-0.8-0.1-1.1-0.4c-0.3-0.3-0.5-0.6-0.5-1V2.4c0-0.4,0.1-0.7,0.4-1c0.3-0.3,0.6-0.4,1-0.4h6.6
		c0.8,0,1.5,0.2,2.2,0.6c0.7,0.4,1.3,1,1.7,1.7c0.4,0.7,0.6,1.6,0.6,2.6c0,0.6-0.1,1.1-0.4,1.7s-0.6,1-1,1.5c-0.4,0.4-0.9,0.8-1.4,1
		l0-0.5c0.4,0.2,0.8,0.5,1.1,0.8s0.5,0.7,0.7,1c0.2,0.4,0.3,0.7,0.3,1.2c0.1,0.4,0.1,0.7,0.1,1c0,0.3,0.1,0.5,0.1,0.7
		c0.1,0.2,0.2,0.4,0.4,0.5c0.3,0.2,0.5,0.5,0.6,0.9c0.1,0.4,0,0.7-0.3,1C47,16.9,46.8,17,46.5,17c-0.3,0.1-0.5,0.1-0.8,0
		c-0.3-0.1-0.5-0.1-0.6-0.2c-0.3-0.2-0.5-0.4-0.8-0.7c-0.3-0.3-0.5-0.7-0.6-1.2c-0.2-0.5-0.2-1.2-0.2-2c0-0.3,0-0.5-0.1-0.7
		c-0.1-0.2-0.2-0.4-0.4-0.6c-0.2-0.2-0.4-0.3-0.6-0.4c-0.3-0.1-0.6-0.1-0.9-0.1h-4.6l0.3-0.5v5c0,0.4-0.1,0.7-0.3,1
		C36.5,16.9,36.2,17,35.8,17z M36.7,8.8h5.4c0.3,0,0.5-0.1,0.8-0.4c0.3-0.3,0.5-0.6,0.6-1C43.7,7,43.8,6.5,43.8,6
		c0-0.7-0.2-1.2-0.5-1.7s-0.7-0.7-1.2-0.7h-5.3l0.3-0.7v6.5L36.7,8.8z"/>
	<path d="M51.4,1h7.7c0.4,0,0.7,0.1,1,0.4s0.4,0.6,0.4,1c0,0.4-0.1,0.7-0.4,0.9c-0.3,0.2-0.6,0.4-1,0.4h-6.4l0.2-0.4v4.5l-0.2-0.2
		H58c0.4,0,0.7,0.1,1,0.4c0.3,0.3,0.4,0.6,0.4,1c0,0.4-0.1,0.7-0.4,0.9c-0.3,0.2-0.6,0.4-1,0.4h-5.3l0.1-0.2v4.6l-0.2-0.2h6.4
		c0.4,0,0.7,0.1,1,0.4c0.3,0.3,0.4,0.6,0.4,0.9c0,0.4-0.1,0.7-0.4,0.9c-0.3,0.2-0.6,0.4-1,0.4h-7.7c-0.4,0-0.7-0.1-1-0.4
		c-0.3-0.3-0.4-0.6-0.4-1V2.4c0-0.4,0.1-0.7,0.4-1C50.6,1.1,51,1,51.4,1z"/>
	<path d="M75.3,1c0.4,0,0.7,0.1,0.9,0.4c0.2,0.2,0.3,0.6,0.3,0.9v13.4c0,0.4-0.1,0.7-0.4,1c-0.3,0.3-0.6,0.4-1,0.4
		c-0.2,0-0.4,0-0.6-0.1c-0.2-0.1-0.4-0.2-0.5-0.3L65,5.2l0.6-0.4v10.9c0,0.4-0.1,0.7-0.4,0.9C65,16.9,64.7,17,64.4,17
		c-0.4,0-0.7-0.1-0.9-0.4c-0.2-0.2-0.3-0.6-0.3-0.9V2.4c0-0.4,0.1-0.7,0.4-1c0.3-0.3,0.6-0.4,1-0.4c0.2,0,0.4,0,0.7,0.1
		s0.4,0.2,0.5,0.4l8.8,11.2L74,12.9V2.3c0-0.4,0.1-0.7,0.3-0.9C74.6,1.1,74.9,1,75.3,1z"/>
	<path d="M94.8,9c0,1.1-0.2,2.2-0.6,3.2c-0.4,1-0.9,1.9-1.6,2.6c-0.7,0.8-1.5,1.4-2.5,1.8c-1,0.4-2,0.6-3.1,0.6s-2.2-0.2-3.1-0.6
		c-1-0.4-1.8-1-2.5-1.8c-0.7-0.8-1.2-1.6-1.6-2.6c-0.4-1-0.6-2.1-0.6-3.2s0.2-2.2,0.6-3.2s0.9-1.9,1.6-2.6c0.7-0.8,1.5-1.4,2.5-1.8
		c0.9-0.4,2-0.6,3.1-0.6s2.2,0.2,3.1,0.6c1,0.4,1.8,1,2.5,1.8c0.7,0.8,1.2,1.6,1.6,2.6C94.6,6.8,94.8,7.9,94.8,9z M91.8,9
		c0-1-0.2-2-0.6-2.8c-0.4-0.8-1-1.5-1.7-2c-0.7-0.5-1.6-0.7-2.5-0.7s-1.8,0.2-2.5,0.7c-0.7,0.5-1.3,1.1-1.7,2C82.4,7,82.2,8,82.2,9
		c0,1,0.2,2,0.6,2.8s1,1.5,1.7,2s1.6,0.7,2.5,0.7s1.8-0.2,2.5-0.7s1.3-1.2,1.7-2C91.6,11,91.8,10,91.8,9z"/>
</g>
<text transform="matrix(1 0 0 1 -193.7611 103.3063)" font-family="'GothamMedium'" font-size="22.9674">MARENO</text>
</svg>
